<svg width="25" height="25" viewBox="0 0 25 25" fill="none" xmlns="http://www.w3.org/2000/svg">
<path d="M3.37717 18.8496V12.8496C3.37717 10.4627 4.32538 8.17348 6.01321 6.48565C7.70103 4.79782 9.99022 3.84961 12.3772 3.84961C14.7641 3.84961 17.0533 4.79782 18.7411 6.48565C20.429 8.17348 21.3772 10.4627 21.3772 12.8496V18.8496" stroke="white" stroke-width="2" stroke-linecap="round" stroke-linejoin="round"/>
<path d="M21.3772 19.8496C21.3772 20.38 21.1665 20.8887 20.7914 21.2638C20.4163 21.6389 19.9076 21.8496 19.3772 21.8496H18.3772C17.8467 21.8496 17.338 21.6389 16.963 21.2638C16.5879 20.8887 16.3772 20.38 16.3772 19.8496V16.8496C16.3772 16.3192 16.5879 15.8105 16.963 15.4354C17.338 15.0603 17.8467 14.8496 18.3772 14.8496H21.3772V19.8496ZM3.37717 19.8496C3.37717 20.38 3.58788 20.8887 3.96295 21.2638C4.33803 21.6389 4.84673 21.8496 5.37717 21.8496H6.37717C6.9076 21.8496 7.41631 21.6389 7.79138 21.2638C8.16645 20.8887 8.37717 20.38 8.37717 19.8496V16.8496C8.37717 16.3192 8.16645 15.8105 7.79138 15.4354C7.41631 15.0603 6.9076 14.8496 6.37717 14.8496H3.37717V19.8496Z" stroke="white" stroke-width="2" stroke-linecap="round" stroke-linejoin="round"/>
</svg>
